<?xml version="1.0" standalone="no"?>
<!DOCTYPE svg PUBLIC "-//W3C//DTD SVG 20010904//EN"
 "http://www.w3.org/TR/2001/REC-SVG-20010904/DTD/svg10.dtd">
<svg version="1.0" xmlns="http://www.w3.org/2000/svg"
 width="500.000000pt" height="500.000000pt" viewBox="0 0 500.000000 500.000000"
 preserveAspectRatio="xMidYMid meet">
<metadata>
Created by potrace 1.11, written by Peter Selinger 2001-2013
</metadata>
<g transform="translate(0.000000,500.000000) scale(0.100000,-0.100000)"
fill="#000000" stroke="none">
<path d="M2280 4874 c-329 -40 -590 -117 -861 -255 -586 -299 -1031 -845
-1205 -1479 -68 -247 -79 -334 -79 -635 0 -298 8 -359 70 -602 147 -566 494
-1052 985 -1379 282 -187 602 -312 950 -371 148 -25 590 -25 734 0 608 107
1117 405 1497 877 93 115 190 271 270 435 120 245 188 474 225 755 22 172 15
505 -15 675 -89 503 -313 937 -666 1290 -352 352 -786 576 -1290 666 -94 17
-169 22 -350 24 -126 2 -246 1 -265 -1z m1075 -771 c185 -45 352 -185 433
-360 96 -208 77 -460 -48 -645 -44 -66 -314 -348 -323 -338 -2 3 -28 43 -59
90 -31 47 -83 111 -115 142 l-60 56 119 119 c144 144 173 193 173 298 0 160
-125 285 -286 285 -124 0 -130 -5 -620 -497 -482 -484 -481 -484 -482 -603 -1
-160 127 -290 286 -290 70 0 117 17 177 62 59 44 97 55 131 37 36 -19 48 -40
49 -83 0 -38 -7 -47 -172 -213 l-172 -173 -57 0 c-31 0 -92 10 -135 23 -421
122 -608 594 -387 977 55 95 948 988 1043 1043 153 88 332 113 505 70z m-577
-1079 c42 -8 115 -34 162 -56 68 -33 101 -57 171 -127 143 -143 196 -281 187
-484 -4 -75 -12 -123 -32 -182 -55 -161 -74 -185 -525 -639 -229 -230 -449
-447 -489 -481 -130 -112 -274 -166 -443 -166 -187 0 -326 58 -460 191 -70 69
-94 101 -128 170 -79 162 -92 340 -36 505 41 124 85 186 255 358 l155 158 60
-91 c33 -50 86 -116 118 -147 l58 -56 -129 -131 c-71 -72 -139 -150 -151 -173
-94 -187 47 -413 258 -413 125 0 124 0 619 493 491 491 502 504 502 618 0 80
-30 155 -82 206 -116 111 -260 120 -389 23 -39 -29 -63 -40 -89 -40 -61 0
-106 70 -80 122 7 12 87 98 178 191 188 188 170 180 310 151z"/>
</g>
</svg>
